<?xml version="1.0" encoding="utf-8" standalone="no"?>
<!DOCTYPE svg PUBLIC "-//W3C//DTD SVG 1.1//EN"
  "http://www.w3.org/Graphics/SVG/1.1/DTD/svg11.dtd">
<!-- Created with matplotlib (https://matplotlib.org/) -->
<svg height="432pt" version="1.1" viewBox="0 0 432 432" width="432pt" xmlns="http://www.w3.org/2000/svg" xmlns:xlink="http://www.w3.org/1999/xlink">
 <metadata>
  <rdf:RDF xmlns:cc="http://creativecommons.org/ns#" xmlns:dc="http://purl.org/dc/elements/1.1/" xmlns:rdf="http://www.w3.org/1999/02/22-rdf-syntax-ns#">
   <cc:Work>
    <dc:type rdf:resource="http://purl.org/dc/dcmitype/StillImage"/>
    <dc:date>2021-02-18T22:51:14.117185</dc:date>
    <dc:format>image/svg+xml</dc:format>
    <dc:creator>
     <cc:Agent>
      <dc:title>Matplotlib v3.3.2, https://matplotlib.org/</dc:title>
     </cc:Agent>
    </dc:creator>
   </cc:Work>
  </rdf:RDF>
 </metadata>
 <defs>
  <style type="text/css">*{stroke-linecap:butt;stroke-linejoin:round;}</style>
 </defs>
 <g id="figure_1">
  <g id="patch_1">
   <path d="M 0 432 
L 432 432 
L 432 0 
L 0 0 
z
" style="fill:#ffffff;"/>
  </g>
  <g id="axes_1">
   <g id="patch_2">
    <path d="M 54 384.48 
L 388.8 384.48 
L 388.8 51.84 
L 54 51.84 
z
" style="fill:#ffffff;"/>
   </g>
   <g id="PathCollection_1">
    <defs>
     <path d="M 0 3 
C 0.795609 3 1.55874 2.683901 2.12132 2.12132 
C 2.683901 1.55874 3 0.795609 3 0 
C 3 -0.795609 2.683901 -1.55874 2.12132 -2.12132 
C 1.55874 -2.683901 0.795609 -3 0 -3 
C -0.795609 -3 -1.55874 -2.683901 -2.12132 -2.12132 
C -2.683901 -1.55874 -3 -0.795609 -3 0 
C -3 0.795609 -2.683901 1.55874 -2.12132 2.12132 
C -1.55874 2.683901 -0.795609 3 0 3 
z
" id="m85f3716e3a" style="stroke:#1f77b4;"/>
    </defs>
    <g clip-path="url(#pe6e5b38b7a)">
     <use style="fill:#1f77b4;stroke:#1f77b4;" x="113.090961" xlink:href="#m85f3716e3a" y="96.02547"/>
     <use style="fill:#1f77b4;stroke:#1f77b4;" x="126.335897" xlink:href="#m85f3716e3a" y="197.868102"/>
     <use style="fill:#1f77b4;stroke:#1f77b4;" x="135.897419" xlink:href="#m85f3716e3a" y="252.763056"/>
     <use style="fill:#1f77b4;stroke:#1f77b4;" x="178.372276" xlink:href="#m85f3716e3a" y="220.321994"/>
     <use style="fill:#1f77b4;stroke:#1f77b4;" x="142.772516" xlink:href="#m85f3716e3a" y="138.491659"/>
     <use style="fill:#1f77b4;stroke:#1f77b4;" x="100.640876" xlink:href="#m85f3716e3a" y="217.150742"/>
     <use style="fill:#1f77b4;stroke:#1f77b4;" x="110.463808" xlink:href="#m85f3716e3a" y="232.903422"/>
     <use style="fill:#1f77b4;stroke:#1f77b4;" x="97.442376" xlink:href="#m85f3716e3a" y="141.603169"/>
     <use style="fill:#1f77b4;stroke:#1f77b4;" x="237.567766" xlink:href="#m85f3716e3a" y="214.593044"/>
     <use style="fill:#1f77b4;stroke:#1f77b4;" x="118.739838" xlink:href="#m85f3716e3a" y="246.117666"/>
     <use style="fill:#1f77b4;stroke:#1f77b4;" x="98.647563" xlink:href="#m85f3716e3a" y="193.845504"/>
     <use style="fill:#1f77b4;stroke:#1f77b4;" x="158.663058" xlink:href="#m85f3716e3a" y="284.949366"/>
     <use style="fill:#1f77b4;stroke:#1f77b4;" x="165.463084" xlink:href="#m85f3716e3a" y="289.599952"/>
     <use style="fill:#1f77b4;stroke:#1f77b4;" x="189.895635" xlink:href="#m85f3716e3a" y="147.855034"/>
     <use style="fill:#1f77b4;stroke:#1f77b4;" x="133.867906" xlink:href="#m85f3716e3a" y="308.03833"/>
     <use style="fill:#1f77b4;stroke:#1f77b4;" x="132.215267" xlink:href="#m85f3716e3a" y="285.153624"/>
     <use style="fill:#1f77b4;stroke:#1f77b4;" x="170.935943" xlink:href="#m85f3716e3a" y="143.983236"/>
     <use style="fill:#1f77b4;stroke:#1f77b4;" x="162.780872" xlink:href="#m85f3716e3a" y="232.17161"/>
     <use style="fill:#1f77b4;stroke:#1f77b4;" x="159.762987" xlink:href="#m85f3716e3a" y="228.640594"/>
     <use style="fill:#1f77b4;stroke:#1f77b4;" x="138.809571" xlink:href="#m85f3716e3a" y="270.203392"/>
     <use style="fill:#1f77b4;stroke:#1f77b4;" x="215.166224" xlink:href="#m85f3716e3a" y="265.955403"/>
     <use style="fill:#1f77b4;stroke:#1f77b4;" x="109.174087" xlink:href="#m85f3716e3a" y="116.312625"/>
     <use style="fill:#1f77b4;stroke:#1f77b4;" x="188.210078" xlink:href="#m85f3716e3a" y="342.434262"/>
     <use style="fill:#1f77b4;stroke:#1f77b4;" x="174.26678" xlink:href="#m85f3716e3a" y="217.28066"/>
     <use style="fill:#1f77b4;stroke:#1f77b4;" x="103.935124" xlink:href="#m85f3716e3a" y="99.30412"/>
     <use style="fill:#1f77b4;stroke:#1f77b4;" x="149.54202" xlink:href="#m85f3716e3a" y="274.430925"/>
     <use style="fill:#1f77b4;stroke:#1f77b4;" x="148.280578" xlink:href="#m85f3716e3a" y="224.797579"/>
     <use style="fill:#1f77b4;stroke:#1f77b4;" x="192.645075" xlink:href="#m85f3716e3a" y="235.416398"/>
     <use style="fill:#1f77b4;stroke:#1f77b4;" x="131.84347" xlink:href="#m85f3716e3a" y="282.998556"/>
     <use style="fill:#1f77b4;stroke:#1f77b4;" x="151.735065" xlink:href="#m85f3716e3a" y="247.127558"/>
     <use style="fill:#1f77b4;stroke:#1f77b4;" x="175.479596" xlink:href="#m85f3716e3a" y="315.677292"/>
     <use style="fill:#1f77b4;stroke:#1f77b4;" x="108.09354" xlink:href="#m85f3716e3a" y="170.15136"/>
     <use style="fill:#1f77b4;stroke:#1f77b4;" x="95.85114" xlink:href="#m85f3716e3a" y="198.25394"/>
     <use style="fill:#1f77b4;stroke:#1f77b4;" x="113.427013" xlink:href="#m85f3716e3a" y="163.573547"/>
     <use style="fill:#1f77b4;stroke:#1f77b4;" x="128.844455" xlink:href="#m85f3716e3a" y="300.092746"/>
     <use style="fill:#1f77b4;stroke:#1f77b4;" x="104.132882" xlink:href="#m85f3716e3a" y="295.382264"/>
     <use style="fill:#1f77b4;stroke:#1f77b4;" x="242.012246" xlink:href="#m85f3716e3a" y="289.25228"/>
     <use style="fill:#1f77b4;stroke:#1f77b4;" x="179.112803" xlink:href="#m85f3716e3a" y="177.56378"/>
     <use style="fill:#1f77b4;stroke:#1f77b4;" x="163.112843" xlink:href="#m85f3716e3a" y="224.879224"/>
     <use style="fill:#1f77b4;stroke:#1f77b4;" x="174.670857" xlink:href="#m85f3716e3a" y="268.897304"/>
     <use style="fill:#1f77b4;stroke:#1f77b4;" x="174.948178" xlink:href="#m85f3716e3a" y="227.266862"/>
     <use style="fill:#1f77b4;stroke:#1f77b4;" x="152.718795" xlink:href="#m85f3716e3a" y="161.718471"/>
     <use style="fill:#1f77b4;stroke:#1f77b4;" x="129.145564" xlink:href="#m85f3716e3a" y="280.668005"/>
     <use style="fill:#1f77b4;stroke:#1f77b4;" x="171.335617" xlink:href="#m85f3716e3a" y="318.773801"/>
     <use style="fill:#1f77b4;stroke:#1f77b4;" x="91.058499" xlink:href="#m85f3716e3a" y="66.96"/>
     <use style="fill:#1f77b4;stroke:#1f77b4;" x="177.486974" xlink:href="#m85f3716e3a" y="292.921978"/>
     <use style="fill:#1f77b4;stroke:#1f77b4;" x="210.798603" xlink:href="#m85f3716e3a" y="163.295593"/>
     <use style="fill:#1f77b4;stroke:#1f77b4;" x="98.4117" xlink:href="#m85f3716e3a" y="233.380307"/>
     <use style="fill:#1f77b4;stroke:#1f77b4;" x="156.967836" xlink:href="#m85f3716e3a" y="112.854219"/>
     <use style="fill:#1f77b4;stroke:#1f77b4;" x="151.811232" xlink:href="#m85f3716e3a" y="87.600157"/>
     <use style="fill:#1f77b4;stroke:#1f77b4;" x="143.491232" xlink:href="#m85f3716e3a" y="303.645874"/>
     <use style="fill:#1f77b4;stroke:#1f77b4;" x="191.396852" xlink:href="#m85f3716e3a" y="246.938944"/>
    </g>
   </g>
   <g id="PathCollection_2">
    <defs>
     <path d="M 0 3 
C 0.795609 3 1.55874 2.683901 2.12132 2.12132 
C 2.683901 1.55874 3 0.795609 3 0 
C 3 -0.795609 2.683901 -1.55874 2.12132 -2.12132 
C 1.55874 -2.683901 0.795609 -3 0 -3 
C -0.795609 -3 -1.55874 -2.683901 -2.12132 -2.12132 
C -2.683901 -1.55874 -3 -0.795609 -3 0 
C -3 0.795609 -2.683901 1.55874 -2.12132 2.12132 
C -1.55874 2.683901 -0.795609 3 0 3 
z
" id="m316afdeae6" style="stroke:#ff7f0e;"/>
    </defs>
    <g clip-path="url(#pe6e5b38b7a)">
     <use style="fill:#ff7f0e;stroke:#ff7f0e;" x="275.191735" xlink:href="#m316afdeae6" y="298.505364"/>
     <use style="fill:#ff7f0e;stroke:#ff7f0e;" x="307.092327" xlink:href="#m316afdeae6" y="218.785926"/>
     <use style="fill:#ff7f0e;stroke:#ff7f0e;" x="243.061375" xlink:href="#m316afdeae6" y="233.955134"/>
     <use style="fill:#ff7f0e;stroke:#ff7f0e;" x="328.025832" xlink:href="#m316afdeae6" y="151.574014"/>
     <use style="fill:#ff7f0e;stroke:#ff7f0e;" x="310.171262" xlink:href="#m316afdeae6" y="170.841317"/>
     <use style="fill:#ff7f0e;stroke:#ff7f0e;" x="269.033839" xlink:href="#m316afdeae6" y="205.227872"/>
     <use style="fill:#ff7f0e;stroke:#ff7f0e;" x="259.640961" xlink:href="#m316afdeae6" y="257.161875"/>
     <use style="fill:#ff7f0e;stroke:#ff7f0e;" x="257.815902" xlink:href="#m316afdeae6" y="165.856852"/>
     <use style="fill:#ff7f0e;stroke:#ff7f0e;" x="288.751905" xlink:href="#m316afdeae6" y="226.173599"/>
     <use style="fill:#ff7f0e;stroke:#ff7f0e;" x="238.825339" xlink:href="#m316afdeae6" y="137.719"/>
     <use style="fill:#ff7f0e;stroke:#ff7f0e;" x="268.473754" xlink:href="#m316afdeae6" y="187.91396"/>
     <use style="fill:#ff7f0e;stroke:#ff7f0e;" x="283.305244" xlink:href="#m316afdeae6" y="109.257159"/>
     <use style="fill:#ff7f0e;stroke:#ff7f0e;" x="269.759783" xlink:href="#m316afdeae6" y="269.930824"/>
     <use style="fill:#ff7f0e;stroke:#ff7f0e;" x="252.989836" xlink:href="#m316afdeae6" y="154.28922"/>
     <use style="fill:#ff7f0e;stroke:#ff7f0e;" x="257.608437" xlink:href="#m316afdeae6" y="254.229026"/>
     <use style="fill:#ff7f0e;stroke:#ff7f0e;" x="187.74398" xlink:href="#m316afdeae6" y="164.959351"/>
     <use style="fill:#ff7f0e;stroke:#ff7f0e;" x="246.191539" xlink:href="#m316afdeae6" y="208.146597"/>
     <use style="fill:#ff7f0e;stroke:#ff7f0e;" x="288.681419" xlink:href="#m316afdeae6" y="220.477794"/>
     <use style="fill:#ff7f0e;stroke:#ff7f0e;" x="281.433894" xlink:href="#m316afdeae6" y="201.905851"/>
     <use style="fill:#ff7f0e;stroke:#ff7f0e;" x="270.40551" xlink:href="#m316afdeae6" y="195.084212"/>
     <use style="fill:#ff7f0e;stroke:#ff7f0e;" x="314.644087" xlink:href="#m316afdeae6" y="287.155109"/>
     <use style="fill:#ff7f0e;stroke:#ff7f0e;" x="226.343469" xlink:href="#m316afdeae6" y="224.697883"/>
     <use style="fill:#ff7f0e;stroke:#ff7f0e;" x="314.632168" xlink:href="#m316afdeae6" y="195.270335"/>
     <use style="fill:#ff7f0e;stroke:#ff7f0e;" x="254.017441" xlink:href="#m316afdeae6" y="180.246271"/>
     <use style="fill:#ff7f0e;stroke:#ff7f0e;" x="286.996095" xlink:href="#m316afdeae6" y="135.697018"/>
     <use style="fill:#ff7f0e;stroke:#ff7f0e;" x="335.429397" xlink:href="#m316afdeae6" y="258.359312"/>
     <use style="fill:#ff7f0e;stroke:#ff7f0e;" x="219.435604" xlink:href="#m316afdeae6" y="229.028191"/>
     <use style="fill:#ff7f0e;stroke:#ff7f0e;" x="216.111168" xlink:href="#m316afdeae6" y="215.494573"/>
     <use style="fill:#ff7f0e;stroke:#ff7f0e;" x="331.897362" xlink:href="#m316afdeae6" y="206.113699"/>
     <use style="fill:#ff7f0e;stroke:#ff7f0e;" x="205.522698" xlink:href="#m316afdeae6" y="199.170427"/>
     <use style="fill:#ff7f0e;stroke:#ff7f0e;" x="307.389295" xlink:href="#m316afdeae6" y="264.707099"/>
     <use style="fill:#ff7f0e;stroke:#ff7f0e;" x="281.814043" xlink:href="#m316afdeae6" y="216.87614"/>
     <use style="fill:#ff7f0e;stroke:#ff7f0e;" x="188.71175" xlink:href="#m316afdeae6" y="262.979547"/>
     <use style="fill:#ff7f0e;stroke:#ff7f0e;" x="373.581818" xlink:href="#m316afdeae6" y="207.497585"/>
     <use style="fill:#ff7f0e;stroke:#ff7f0e;" x="241.163398" xlink:href="#m316afdeae6" y="172.605996"/>
     <use style="fill:#ff7f0e;stroke:#ff7f0e;" x="323.124394" xlink:href="#m316afdeae6" y="222.422566"/>
     <use style="fill:#ff7f0e;stroke:#ff7f0e;" x="303.759158" xlink:href="#m316afdeae6" y="203.423195"/>
     <use style="fill:#ff7f0e;stroke:#ff7f0e;" x="239.722244" xlink:href="#m316afdeae6" y="234.344843"/>
     <use style="fill:#ff7f0e;stroke:#ff7f0e;" x="275.398088" xlink:href="#m316afdeae6" y="113.338097"/>
     <use style="fill:#ff7f0e;stroke:#ff7f0e;" x="311.681494" xlink:href="#m316afdeae6" y="222.265433"/>
     <use style="fill:#ff7f0e;stroke:#ff7f0e;" x="293.649766" xlink:href="#m316afdeae6" y="182.175632"/>
     <use style="fill:#ff7f0e;stroke:#ff7f0e;" x="239.329646" xlink:href="#m316afdeae6" y="229.369565"/>
     <use style="fill:#ff7f0e;stroke:#ff7f0e;" x="269.744556" xlink:href="#m316afdeae6" y="240.606038"/>
     <use style="fill:#ff7f0e;stroke:#ff7f0e;" x="235.856881" xlink:href="#m316afdeae6" y="150.318796"/>
     <use style="fill:#ff7f0e;stroke:#ff7f0e;" x="279.289946" xlink:href="#m316afdeae6" y="244.503731"/>
     <use style="fill:#ff7f0e;stroke:#ff7f0e;" x="256.352498" xlink:href="#m316afdeae6" y="253.059923"/>
     <use style="fill:#ff7f0e;stroke:#ff7f0e;" x="244.504951" xlink:href="#m316afdeae6" y="195.809807"/>
     <use style="fill:#ff7f0e;stroke:#ff7f0e;" x="250.300348" xlink:href="#m316afdeae6" y="156.534201"/>
     <use style="fill:#ff7f0e;stroke:#ff7f0e;" x="276.438028" xlink:href="#m316afdeae6" y="248.701063"/>
     <use style="fill:#ff7f0e;stroke:#ff7f0e;" x="256.273601" xlink:href="#m316afdeae6" y="255.998012"/>
    </g>
   </g>
   <g id="patch_3">
    <path clip-path="url(#pe6e5b38b7a)" d="M 146.31783 368.825728 
C 167.375535 369.36 187.903778 354.410254 203.381452 327.268998 
C 218.859126 300.127742 228.022547 263.010939 228.853578 224.093134 
C 229.68461 185.17533 222.115401 147.63399 207.812983 119.737159 
C 193.510565 91.840329 173.642666 75.865659 152.584961 75.331387 
C 131.527257 74.797115 110.999013 89.746861 95.52134 116.888117 
C 80.043666 144.029374 70.880245 181.146176 70.049213 220.063981 
C 69.218182 258.981785 76.78739 296.523125 91.089808 324.419956 
C 105.392226 352.316787 125.260125 368.291456 146.31783 368.825728 
z
" style="fill:#1f77b4;opacity:0.2;"/>
   </g>
   <g id="patch_4">
    <path clip-path="url(#pe6e5b38b7a)" d="M 269.043334 302.496211 
C 290.838887 302.967001 311.924129 293.54776 327.65528 276.312967 
C 343.386431 259.078174 352.479113 235.434973 352.930767 210.590505 
C 353.382422 185.746037 345.156174 161.728743 330.063759 143.828153 
C 314.971343 125.927562 294.24499 115.60518 272.449437 115.13439 
C 250.653884 114.663601 229.568642 124.082842 213.837491 141.317635 
C 198.10634 158.552428 189.013658 182.195629 188.562003 207.040096 
C 188.110349 231.884564 196.336597 255.901858 211.429012 273.802449 
C 226.521427 291.703039 247.247781 302.025421 269.043334 302.496211 
z
" style="fill:#ff7f0e;opacity:0.2;"/>
   </g>
   <g id="matplotlib.axis_1">
    <g id="xtick_1">
     <g id="line2d_1">
      <path clip-path="url(#pe6e5b38b7a)" d="M 77.276479 384.48 
L 77.276479 51.84 
" style="fill:none;stroke:#b0b0b0;stroke-linecap:square;stroke-width:0.8;"/>
     </g>
     <g id="text_1">
      <!-- −3 -->
      <g transform="translate(69.905385 399.078438)scale(0.1 -0.1)">
       <defs>
        <path d="M 10.59375 35.5 
L 73.1875 35.5 
L 73.1875 27.203125 
L 10.59375 27.203125 
z
" id="DejaVuSans-8722"/>
        <path d="M 40.578125 39.3125 
Q 47.65625 37.796875 51.625 33 
Q 55.609375 28.21875 55.609375 21.1875 
Q 55.609375 10.40625 48.1875 4.484375 
Q 40.765625 -1.421875 27.09375 -1.421875 
Q 22.515625 -1.421875 17.65625 -0.515625 
Q 12.796875 0.390625 7.625 2.203125 
L 7.625 11.71875 
Q 11.71875 9.328125 16.59375 8.109375 
Q 21.484375 6.890625 26.8125 6.890625 
Q 36.078125 6.890625 40.9375 10.546875 
Q 45.796875 14.203125 45.796875 21.1875 
Q 45.796875 27.640625 41.28125 31.265625 
Q 36.765625 34.90625 28.71875 34.90625 
L 20.21875 34.90625 
L 20.21875 43.015625 
L 29.109375 43.015625 
Q 36.375 43.015625 40.234375 45.921875 
Q 44.09375 48.828125 44.09375 54.296875 
Q 44.09375 59.90625 40.109375 62.90625 
Q 36.140625 65.921875 28.71875 65.921875 
Q 24.65625 65.921875 20.015625 65.03125 
Q 15.375 64.15625 9.8125 62.3125 
L 9.8125 71.09375 
Q 15.4375 72.65625 20.34375 73.4375 
Q 25.25 74.21875 29.59375 74.21875 
Q 40.828125 74.21875 47.359375 69.109375 
Q 53.90625 64.015625 53.90625 55.328125 
Q 53.90625 49.265625 50.4375 45.09375 
Q 46.96875 40.921875 40.578125 39.3125 
z
" id="DejaVuSans-51"/>
       </defs>
       <use xlink:href="#DejaVuSans-8722"/>
       <use x="83.789062" xlink:href="#DejaVuSans-51"/>
      </g>
     </g>
    </g>
    <g id="xtick_2">
     <g id="line2d_2">
      <path clip-path="url(#pe6e5b38b7a)" d="M 121.154227 384.48 
L 121.154227 51.84 
" style="fill:none;stroke:#b0b0b0;stroke-linecap:square;stroke-width:0.8;"/>
     </g>
     <g id="text_2">
      <!-- −2 -->
      <g transform="translate(113.783133 399.078438)scale(0.1 -0.1)">
       <defs>
        <path d="M 19.1875 8.296875 
L 53.609375 8.296875 
L 53.609375 0 
L 7.328125 0 
L 7.328125 8.296875 
Q 12.9375 14.109375 22.625 23.890625 
Q 32.328125 33.6875 34.8125 36.53125 
Q 39.546875 41.84375 41.421875 45.53125 
Q 43.3125 49.21875 43.3125 52.78125 
Q 43.3125 58.59375 39.234375 62.25 
Q 35.15625 65.921875 28.609375 65.921875 
Q 23.96875 65.921875 18.8125 64.3125 
Q 13.671875 62.703125 7.8125 59.421875 
L 7.8125 69.390625 
Q 13.765625 71.78125 18.9375 73 
Q 24.125 74.21875 28.421875 74.21875 
Q 39.75 74.21875 46.484375 68.546875 
Q 53.21875 62.890625 53.21875 53.421875 
Q 53.21875 48.921875 51.53125 44.890625 
Q 49.859375 40.875 45.40625 35.40625 
Q 44.1875 33.984375 37.640625 27.21875 
Q 31.109375 20.453125 19.1875 8.296875 
z
" id="DejaVuSans-50"/>
       </defs>
       <use xlink:href="#DejaVuSans-8722"/>
       <use x="83.789062" xlink:href="#DejaVuSans-50"/>
      </g>
     </g>
    </g>
    <g id="xtick_3">
     <g id="line2d_3">
      <path clip-path="url(#pe6e5b38b7a)" d="M 165.031976 384.48 
L 165.031976 51.84 
" style="fill:none;stroke:#b0b0b0;stroke-linecap:square;stroke-width:0.8;"/>
     </g>
     <g id="text_3">
      <!-- −1 -->
      <g transform="translate(157.660882 399.078438)scale(0.1 -0.1)">
       <defs>
        <path d="M 12.40625 8.296875 
L 28.515625 8.296875 
L 28.515625 63.921875 
L 10.984375 60.40625 
L 10.984375 69.390625 
L 28.421875 72.90625 
L 38.28125 72.90625 
L 38.28125 8.296875 
L 54.390625 8.296875 
L 54.390625 0 
L 12.40625 0 
z
" id="DejaVuSans-49"/>
       </defs>
       <use xlink:href="#DejaVuSans-8722"/>
       <use x="83.789062" xlink:href="#DejaVuSans-49"/>
      </g>
     </g>
    </g>
    <g id="xtick_4">
     <g id="line2d_4">
      <path clip-path="url(#pe6e5b38b7a)" d="M 208.909724 384.48 
L 208.909724 51.84 
" style="fill:none;stroke:#b0b0b0;stroke-linecap:square;stroke-width:0.8;"/>
     </g>
     <g id="text_4">
      <!-- 0 -->
      <g transform="translate(205.728474 399.078438)scale(0.1 -0.1)">
       <defs>
        <path d="M 31.78125 66.40625 
Q 24.171875 66.40625 20.328125 58.90625 
Q 16.5 51.421875 16.5 36.375 
Q 16.5 21.390625 20.328125 13.890625 
Q 24.171875 6.390625 31.78125 6.390625 
Q 39.453125 6.390625 43.28125 13.890625 
Q 47.125 21.390625 47.125 36.375 
Q 47.125 51.421875 43.28125 58.90625 
Q 39.453125 66.40625 31.78125 66.40625 
z
M 31.78125 74.21875 
Q 44.046875 74.21875 50.515625 64.515625 
Q 56.984375 54.828125 56.984375 36.375 
Q 56.984375 17.96875 50.515625 8.265625 
Q 44.046875 -1.421875 31.78125 -1.421875 
Q 19.53125 -1.421875 13.0625 8.265625 
Q 6.59375 17.96875 6.59375 36.375 
Q 6.59375 54.828125 13.0625 64.515625 
Q 19.53125 74.21875 31.78125 74.21875 
z
" id="DejaVuSans-48"/>
       </defs>
       <use xlink:href="#DejaVuSans-48"/>
      </g>
     </g>
    </g>
    <g id="xtick_5">
     <g id="line2d_5">
      <path clip-path="url(#pe6e5b38b7a)" d="M 252.787472 384.48 
L 252.787472 51.84 
" style="fill:none;stroke:#b0b0b0;stroke-linecap:square;stroke-width:0.8;"/>
     </g>
     <g id="text_5">
      <!-- 1 -->
      <g transform="translate(249.606222 399.078438)scale(0.1 -0.1)">
       <use xlink:href="#DejaVuSans-49"/>
      </g>
     </g>
    </g>
    <g id="xtick_6">
     <g id="line2d_6">
      <path clip-path="url(#pe6e5b38b7a)" d="M 296.665221 384.48 
L 296.665221 51.84 
" style="fill:none;stroke:#b0b0b0;stroke-linecap:square;stroke-width:0.8;"/>
     </g>
     <g id="text_6">
      <!-- 2 -->
      <g transform="translate(293.483971 399.078438)scale(0.1 -0.1)">
       <use xlink:href="#DejaVuSans-50"/>
      </g>
     </g>
    </g>
    <g id="xtick_7">
     <g id="line2d_7">
      <path clip-path="url(#pe6e5b38b7a)" d="M 340.542969 384.48 
L 340.542969 51.84 
" style="fill:none;stroke:#b0b0b0;stroke-linecap:square;stroke-width:0.8;"/>
     </g>
     <g id="text_7">
      <!-- 3 -->
      <g transform="translate(337.361719 399.078438)scale(0.1 -0.1)">
       <use xlink:href="#DejaVuSans-51"/>
      </g>
     </g>
    </g>
    <g id="xtick_8">
     <g id="line2d_8">
      <path clip-path="url(#pe6e5b38b7a)" d="M 384.420718 384.48 
L 384.420718 51.84 
" style="fill:none;stroke:#b0b0b0;stroke-linecap:square;stroke-width:0.8;"/>
     </g>
     <g id="text_8">
      <!-- 4 -->
      <g transform="translate(381.239468 399.078438)scale(0.1 -0.1)">
       <defs>
        <path d="M 37.796875 64.3125 
L 12.890625 25.390625 
L 37.796875 25.390625 
z
M 35.203125 72.90625 
L 47.609375 72.90625 
L 47.609375 25.390625 
L 58.015625 25.390625 
L 58.015625 17.1875 
L 47.609375 17.1875 
L 47.609375 0 
L 37.796875 0 
L 37.796875 17.1875 
L 4.890625 17.1875 
L 4.890625 26.703125 
z
" id="DejaVuSans-52"/>
       </defs>
       <use xlink:href="#DejaVuSans-52"/>
      </g>
     </g>
    </g>
    <g id="text_9">
     <!-- Component 0 (14.84% inertia) -->
     <g transform="translate(145.353125 412.756563)scale(0.1 -0.1)">
      <defs>
       <path d="M 64.40625 67.28125 
L 64.40625 56.890625 
Q 59.421875 61.53125 53.78125 63.8125 
Q 48.140625 66.109375 41.796875 66.109375 
Q 29.296875 66.109375 22.65625 58.46875 
Q 16.015625 50.828125 16.015625 36.375 
Q 16.015625 21.96875 22.65625 14.328125 
Q 29.296875 6.6875 41.796875 6.6875 
Q 48.140625 6.6875 53.78125 8.984375 
Q 59.421875 11.28125 64.40625 15.921875 
L 64.40625 5.609375 
Q 59.234375 2.09375 53.4375 0.328125 
Q 47.65625 -1.421875 41.21875 -1.421875 
Q 24.65625 -1.421875 15.125 8.703125 
Q 5.609375 18.84375 5.609375 36.375 
Q 5.609375 53.953125 15.125 64.078125 
Q 24.65625 74.21875 41.21875 74.21875 
Q 47.75 74.21875 53.53125 72.484375 
Q 59.328125 70.75 64.40625 67.28125 
z
" id="DejaVuSans-67"/>
       <path d="M 30.609375 48.390625 
Q 23.390625 48.390625 19.1875 42.75 
Q 14.984375 37.109375 14.984375 27.296875 
Q 14.984375 17.484375 19.15625 11.84375 
Q 23.34375 6.203125 30.609375 6.203125 
Q 37.796875 6.203125 41.984375 11.859375 
Q 46.1875 17.53125 46.1875 27.296875 
Q 46.1875 37.015625 41.984375 42.703125 
Q 37.796875 48.390625 30.609375 48.390625 
z
M 30.609375 56 
Q 42.328125 56 49.015625 48.375 
Q 55.71875 40.765625 55.71875 27.296875 
Q 55.71875 13.875 49.015625 6.21875 
Q 42.328125 -1.421875 30.609375 -1.421875 
Q 18.84375 -1.421875 12.171875 6.21875 
Q 5.515625 13.875 5.515625 27.296875 
Q 5.515625 40.765625 12.171875 48.375 
Q 18.84375 56 30.609375 56 
z
" id="DejaVuSans-111"/>
       <path d="M 52 44.1875 
Q 55.375 50.25 60.0625 53.125 
Q 64.75 56 71.09375 56 
Q 79.640625 56 84.28125 50.015625 
Q 88.921875 44.046875 88.921875 33.015625 
L 88.921875 0 
L 79.890625 0 
L 79.890625 32.71875 
Q 79.890625 40.578125 77.09375 44.375 
Q 74.3125 48.1875 68.609375 48.1875 
Q 61.625 48.1875 57.5625 43.546875 
Q 53.515625 38.921875 53.515625 30.90625 
L 53.515625 0 
L 44.484375 0 
L 44.484375 32.71875 
Q 44.484375 40.625 41.703125 44.40625 
Q 38.921875 48.1875 33.109375 48.1875 
Q 26.21875 48.1875 22.15625 43.53125 
Q 18.109375 38.875 18.109375 30.90625 
L 18.109375 0 
L 9.078125 0 
L 9.078125 54.6875 
L 18.109375 54.6875 
L 18.109375 46.1875 
Q 21.1875 51.21875 25.484375 53.609375 
Q 29.78125 56 35.6875 56 
Q 41.65625 56 45.828125 52.96875 
Q 50 49.953125 52 44.1875 
z
" id="DejaVuSans-109"/>
       <path d="M 18.109375 8.203125 
L 18.109375 -20.796875 
L 9.078125 -20.796875 
L 9.078125 54.6875 
L 18.109375 54.6875 
L 18.109375 46.390625 
Q 20.953125 51.265625 25.265625 53.625 
Q 29.59375 56 35.59375 56 
Q 45.5625 56 51.78125 48.09375 
Q 58.015625 40.1875 58.015625 27.296875 
Q 58.015625 14.40625 51.78125 6.484375 
Q 45.5625 -1.421875 35.59375 -1.421875 
Q 29.59375 -1.421875 25.265625 0.953125 
Q 20.953125 3.328125 18.109375 8.203125 
z
M 48.6875 27.296875 
Q 48.6875 37.203125 44.609375 42.84375 
Q 40.53125 48.484375 33.40625 48.484375 
Q 26.265625 48.484375 22.1875 42.84375 
Q 18.109375 37.203125 18.109375 27.296875 
Q 18.109375 17.390625 22.1875 11.75 
Q 26.265625 6.109375 33.40625 6.109375 
Q 40.53125 6.109375 44.609375 11.75 
Q 48.6875 17.390625 48.6875 27.296875 
z
" id="DejaVuSans-112"/>
       <path d="M 54.890625 33.015625 
L 54.890625 0 
L 45.90625 0 
L 45.90625 32.71875 
Q 45.90625 40.484375 42.875 44.328125 
Q 39.84375 48.1875 33.796875 48.1875 
Q 26.515625 48.1875 22.3125 43.546875 
Q 18.109375 38.921875 18.109375 30.90625 
L 18.109375 0 
L 9.078125 0 
L 9.078125 54.6875 
L 18.109375 54.6875 
L 18.109375 46.1875 
Q 21.34375 51.125 25.703125 53.5625 
Q 30.078125 56 35.796875 56 
Q 45.21875 56 50.046875 50.171875 
Q 54.890625 44.34375 54.890625 33.015625 
z
" id="DejaVuSans-110"/>
       <path d="M 56.203125 29.59375 
L 56.203125 25.203125 
L 14.890625 25.203125 
Q 15.484375 15.921875 20.484375 11.0625 
Q 25.484375 6.203125 34.421875 6.203125 
Q 39.59375 6.203125 44.453125 7.46875 
Q 49.3125 8.734375 54.109375 11.28125 
L 54.109375 2.78125 
Q 49.265625 0.734375 44.1875 -0.34375 
Q 39.109375 -1.421875 33.890625 -1.421875 
Q 20.796875 -1.421875 13.15625 6.1875 
Q 5.515625 13.8125 5.515625 26.8125 
Q 5.515625 40.234375 12.765625 48.109375 
Q 20.015625 56 32.328125 56 
Q 43.359375 56 49.78125 48.890625 
Q 56.203125 41.796875 56.203125 29.59375 
z
M 47.21875 32.234375 
Q 47.125 39.59375 43.09375 43.984375 
Q 39.0625 48.390625 32.421875 48.390625 
Q 24.90625 48.390625 20.390625 44.140625 
Q 15.875 39.890625 15.1875 32.171875 
z
" id="DejaVuSans-101"/>
       <path d="M 18.3125 70.21875 
L 18.3125 54.6875 
L 36.8125 54.6875 
L 36.8125 47.703125 
L 18.3125 47.703125 
L 18.3125 18.015625 
Q 18.3125 11.328125 20.140625 9.421875 
Q 21.96875 7.515625 27.59375 7.515625 
L 36.8125 7.515625 
L 36.8125 0 
L 27.59375 0 
Q 17.1875 0 13.234375 3.875 
Q 9.28125 7.765625 9.28125 18.015625 
L 9.28125 47.703125 
L 2.6875 47.703125 
L 2.6875 54.6875 
L 9.28125 54.6875 
L 9.28125 70.21875 
z
" id="DejaVuSans-116"/>
       <path id="DejaVuSans-32"/>
       <path d="M 31 75.875 
Q 24.46875 64.65625 21.28125 53.65625 
Q 18.109375 42.671875 18.109375 31.390625 
Q 18.109375 20.125 21.3125 9.0625 
Q 24.515625 -2 31 -13.1875 
L 23.1875 -13.1875 
Q 15.875 -1.703125 12.234375 9.375 
Q 8.59375 20.453125 8.59375 31.390625 
Q 8.59375 42.28125 12.203125 53.3125 
Q 15.828125 64.359375 23.1875 75.875 
z
" id="DejaVuSans-40"/>
       <path d="M 10.6875 12.40625 
L 21 12.40625 
L 21 0 
L 10.6875 0 
z
" id="DejaVuSans-46"/>
       <path d="M 31.78125 34.625 
Q 24.75 34.625 20.71875 30.859375 
Q 16.703125 27.09375 16.703125 20.515625 
Q 16.703125 13.921875 20.71875 10.15625 
Q 24.75 6.390625 31.78125 6.390625 
Q 38.8125 6.390625 42.859375 10.171875 
Q 46.921875 13.96875 46.921875 20.515625 
Q 46.921875 27.09375 42.890625 30.859375 
Q 38.875 34.625 31.78125 34.625 
z
M 21.921875 38.8125 
Q 15.578125 40.375 12.03125 44.71875 
Q 8.5 49.078125 8.5 55.328125 
Q 8.5 64.0625 14.71875 69.140625 
Q 20.953125 74.21875 31.78125 74.21875 
Q 42.671875 74.21875 48.875 69.140625 
Q 55.078125 64.0625 55.078125 55.328125 
Q 55.078125 49.078125 51.53125 44.71875 
Q 48 40.375 41.703125 38.8125 
Q 48.828125 37.15625 52.796875 32.3125 
Q 56.78125 27.484375 56.78125 20.515625 
Q 56.78125 9.90625 50.3125 4.234375 
Q 43.84375 -1.421875 31.78125 -1.421875 
Q 19.734375 -1.421875 13.25 4.234375 
Q 6.78125 9.90625 6.78125 20.515625 
Q 6.78125 27.484375 10.78125 32.3125 
Q 14.796875 37.15625 21.921875 38.8125 
z
M 18.3125 54.390625 
Q 18.3125 48.734375 21.84375 45.5625 
Q 25.390625 42.390625 31.78125 42.390625 
Q 38.140625 42.390625 41.71875 45.5625 
Q 45.3125 48.734375 45.3125 54.390625 
Q 45.3125 60.0625 41.71875 63.234375 
Q 38.140625 66.40625 31.78125 66.40625 
Q 25.390625 66.40625 21.84375 63.234375 
Q 18.3125 60.0625 18.3125 54.390625 
z
" id="DejaVuSans-56"/>
       <path d="M 72.703125 32.078125 
Q 68.453125 32.078125 66.03125 28.46875 
Q 63.625 24.859375 63.625 18.40625 
Q 63.625 12.0625 66.03125 8.421875 
Q 68.453125 4.78125 72.703125 4.78125 
Q 76.859375 4.78125 79.265625 8.421875 
Q 81.6875 12.0625 81.6875 18.40625 
Q 81.6875 24.8125 79.265625 28.4375 
Q 76.859375 32.078125 72.703125 32.078125 
z
M 72.703125 38.28125 
Q 80.421875 38.28125 84.953125 32.90625 
Q 89.5 27.546875 89.5 18.40625 
Q 89.5 9.28125 84.9375 3.921875 
Q 80.375 -1.421875 72.703125 -1.421875 
Q 64.890625 -1.421875 60.34375 3.921875 
Q 55.8125 9.28125 55.8125 18.40625 
Q 55.8125 27.59375 60.375 32.9375 
Q 64.9375 38.28125 72.703125 38.28125 
z
M 22.3125 68.015625 
Q 18.109375 68.015625 15.6875 64.375 
Q 13.28125 60.75 13.28125 54.390625 
Q 13.28125 47.953125 15.671875 44.328125 
Q 18.0625 40.71875 22.3125 40.71875 
Q 26.5625 40.71875 28.96875 44.328125 
Q 31.390625 47.953125 31.390625 54.390625 
Q 31.390625 60.6875 28.953125 64.34375 
Q 26.515625 68.015625 22.3125 68.015625 
z
M 66.40625 74.21875 
L 74.21875 74.21875 
L 28.609375 -1.421875 
L 20.796875 -1.421875 
z
M 22.3125 74.21875 
Q 30.03125 74.21875 34.609375 68.875 
Q 39.203125 63.53125 39.203125 54.390625 
Q 39.203125 45.171875 34.640625 39.84375 
Q 30.078125 34.515625 22.3125 34.515625 
Q 14.546875 34.515625 10.03125 39.859375 
Q 5.515625 45.21875 5.515625 54.390625 
Q 5.515625 63.484375 10.046875 68.84375 
Q 14.59375 74.21875 22.3125 74.21875 
z
" id="DejaVuSans-37"/>
       <path d="M 9.421875 54.6875 
L 18.40625 54.6875 
L 18.40625 0 
L 9.421875 0 
z
M 9.421875 75.984375 
L 18.40625 75.984375 
L 18.40625 64.59375 
L 9.421875 64.59375 
z
" id="DejaVuSans-105"/>
       <path d="M 41.109375 46.296875 
Q 39.59375 47.171875 37.8125 47.578125 
Q 36.03125 48 33.890625 48 
Q 26.265625 48 22.1875 43.046875 
Q 18.109375 38.09375 18.109375 28.8125 
L 18.109375 0 
L 9.078125 0 
L 9.078125 54.6875 
L 18.109375 54.6875 
L 18.109375 46.1875 
Q 20.953125 51.171875 25.484375 53.578125 
Q 30.03125 56 36.53125 56 
Q 37.453125 56 38.578125 55.875 
Q 39.703125 55.765625 41.0625 55.515625 
z
" id="DejaVuSans-114"/>
       <path d="M 34.28125 27.484375 
Q 23.390625 27.484375 19.1875 25 
Q 14.984375 22.515625 14.984375 16.5 
Q 14.984375 11.71875 18.140625 8.90625 
Q 21.296875 6.109375 26.703125 6.109375 
Q 34.1875 6.109375 38.703125 11.40625 
Q 43.21875 16.703125 43.21875 25.484375 
L 43.21875 27.484375 
z
M 52.203125 31.203125 
L 52.203125 0 
L 43.21875 0 
L 43.21875 8.296875 
Q 40.140625 3.328125 35.546875 0.953125 
Q 30.953125 -1.421875 24.3125 -1.421875 
Q 15.921875 -1.421875 10.953125 3.296875 
Q 6 8.015625 6 15.921875 
Q 6 25.140625 12.171875 29.828125 
Q 18.359375 34.515625 30.609375 34.515625 
L 43.21875 34.515625 
L 43.21875 35.40625 
Q 43.21875 41.609375 39.140625 45 
Q 35.0625 48.390625 27.6875 48.390625 
Q 23 48.390625 18.546875 47.265625 
Q 14.109375 46.140625 10.015625 43.890625 
L 10.015625 52.203125 
Q 14.9375 54.109375 19.578125 55.046875 
Q 24.21875 56 28.609375 56 
Q 40.484375 56 46.34375 49.84375 
Q 52.203125 43.703125 52.203125 31.203125 
z
" id="DejaVuSans-97"/>
       <path d="M 8.015625 75.875 
L 15.828125 75.875 
Q 23.140625 64.359375 26.78125 53.3125 
Q 30.421875 42.28125 30.421875 31.390625 
Q 30.421875 20.453125 26.78125 9.375 
Q 23.140625 -1.703125 15.828125 -13.1875 
L 8.015625 -13.1875 
Q 14.5 -2 17.703125 9.0625 
Q 20.90625 20.125 20.90625 31.390625 
Q 20.90625 42.671875 17.703125 53.65625 
Q 14.5 64.65625 8.015625 75.875 
z
" id="DejaVuSans-41"/>
      </defs>
      <use xlink:href="#DejaVuSans-67"/>
      <use x="69.824219" xlink:href="#DejaVuSans-111"/>
      <use x="131.005859" xlink:href="#DejaVuSans-109"/>
      <use x="228.417969" xlink:href="#DejaVuSans-112"/>
      <use x="291.894531" xlink:href="#DejaVuSans-111"/>
      <use x="353.076172" xlink:href="#DejaVuSans-110"/>
      <use x="416.455078" xlink:href="#DejaVuSans-101"/>
      <use x="477.978516" xlink:href="#DejaVuSans-110"/>
      <use x="541.357422" xlink:href="#DejaVuSans-116"/>
      <use x="580.566406" xlink:href="#DejaVuSans-32"/>
      <use x="612.353516" xlink:href="#DejaVuSans-48"/>
      <use x="675.976562" xlink:href="#DejaVuSans-32"/>
      <use x="707.763672" xlink:href="#DejaVuSans-40"/>
      <use x="746.777344" xlink:href="#DejaVuSans-49"/>
      <use x="810.400391" xlink:href="#DejaVuSans-52"/>
      <use x="874.023438" xlink:href="#DejaVuSans-46"/>
      <use x="905.810547" xlink:href="#DejaVuSans-56"/>
      <use x="969.433594" xlink:href="#DejaVuSans-52"/>
      <use x="1033.056641" xlink:href="#DejaVuSans-37"/>
      <use x="1128.076172" xlink:href="#DejaVuSans-32"/>
      <use x="1159.863281" xlink:href="#DejaVuSans-105"/>
      <use x="1187.646484" xlink:href="#DejaVuSans-110"/>
      <use x="1251.025391" xlink:href="#DejaVuSans-101"/>
      <use x="1312.548828" xlink:href="#DejaVuSans-114"/>
      <use x="1353.662109" xlink:href="#DejaVuSans-116"/>
      <use x="1392.871094" xlink:href="#DejaVuSans-105"/>
      <use x="1420.654297" xlink:href="#DejaVuSans-97"/>
      <use x="1481.933594" xlink:href="#DejaVuSans-41"/>
     </g>
    </g>
   </g>
   <g id="matplotlib.axis_2">
    <g id="ytick_1">
     <g id="line2d_9">
      <path clip-path="url(#pe6e5b38b7a)" d="M 54 359.062041 
L 388.8 359.062041 
" style="fill:none;stroke:#b0b0b0;stroke-linecap:square;stroke-width:0.8;"/>
     </g>
     <g id="text_10">
      <!-- −3 -->
      <g transform="translate(32.257812 362.86126)scale(0.1 -0.1)">
       <use xlink:href="#DejaVuSans-8722"/>
       <use x="83.789062" xlink:href="#DejaVuSans-51"/>
      </g>
     </g>
    </g>
    <g id="ytick_2">
     <g id="line2d_10">
      <path clip-path="url(#pe6e5b38b7a)" d="M 54 311.233681 
L 388.8 311.233681 
" style="fill:none;stroke:#b0b0b0;stroke-linecap:square;stroke-width:0.8;"/>
     </g>
     <g id="text_11">
      <!-- −2 -->
      <g transform="translate(32.257812 315.0329)scale(0.1 -0.1)">
       <use xlink:href="#DejaVuSans-8722"/>
       <use x="83.789062" xlink:href="#DejaVuSans-50"/>
      </g>
     </g>
    </g>
    <g id="ytick_3">
     <g id="line2d_11">
      <path clip-path="url(#pe6e5b38b7a)" d="M 54 263.405321 
L 388.8 263.405321 
" style="fill:none;stroke:#b0b0b0;stroke-linecap:square;stroke-width:0.8;"/>
     </g>
     <g id="text_12">
      <!-- −1 -->
      <g transform="translate(32.257812 267.20454)scale(0.1 -0.1)">
       <use xlink:href="#DejaVuSans-8722"/>
       <use x="83.789062" xlink:href="#DejaVuSans-49"/>
      </g>
     </g>
    </g>
    <g id="ytick_4">
     <g id="line2d_12">
      <path clip-path="url(#pe6e5b38b7a)" d="M 54 215.576961 
L 388.8 215.576961 
" style="fill:none;stroke:#b0b0b0;stroke-linecap:square;stroke-width:0.8;"/>
     </g>
     <g id="text_13">
      <!-- 0 -->
      <g transform="translate(40.6375 219.37618)scale(0.1 -0.1)">
       <use xlink:href="#DejaVuSans-48"/>
      </g>
     </g>
    </g>
    <g id="ytick_5">
     <g id="line2d_13">
      <path clip-path="url(#pe6e5b38b7a)" d="M 54 167.748601 
L 388.8 167.748601 
" style="fill:none;stroke:#b0b0b0;stroke-linecap:square;stroke-width:0.8;"/>
     </g>
     <g id="text_14">
      <!-- 1 -->
      <g transform="translate(40.6375 171.54782)scale(0.1 -0.1)">
       <use xlink:href="#DejaVuSans-49"/>
      </g>
     </g>
    </g>
    <g id="ytick_6">
     <g id="line2d_14">
      <path clip-path="url(#pe6e5b38b7a)" d="M 54 119.920241 
L 388.8 119.920241 
" style="fill:none;stroke:#b0b0b0;stroke-linecap:square;stroke-width:0.8;"/>
     </g>
     <g id="text_15">
      <!-- 2 -->
      <g transform="translate(40.6375 123.71946)scale(0.1 -0.1)">
       <use xlink:href="#DejaVuSans-50"/>
      </g>
     </g>
    </g>
    <g id="ytick_7">
     <g id="line2d_15">
      <path clip-path="url(#pe6e5b38b7a)" d="M 54 72.091881 
L 388.8 72.091881 
" style="fill:none;stroke:#b0b0b0;stroke-linecap:square;stroke-width:0.8;"/>
     </g>
     <g id="text_16">
      <!-- 3 -->
      <g transform="translate(40.6375 75.891099)scale(0.1 -0.1)">
       <use xlink:href="#DejaVuSans-51"/>
      </g>
     </g>
    </g>
    <g id="text_17">
     <!-- Component 1 (8.13% inertia) -->
     <g transform="translate(26.178125 291.025625)rotate(-90)scale(0.1 -0.1)">
      <use xlink:href="#DejaVuSans-67"/>
      <use x="69.824219" xlink:href="#DejaVuSans-111"/>
      <use x="131.005859" xlink:href="#DejaVuSans-109"/>
      <use x="228.417969" xlink:href="#DejaVuSans-112"/>
      <use x="291.894531" xlink:href="#DejaVuSans-111"/>
      <use x="353.076172" xlink:href="#DejaVuSans-110"/>
      <use x="416.455078" xlink:href="#DejaVuSans-101"/>
      <use x="477.978516" xlink:href="#DejaVuSans-110"/>
      <use x="541.357422" xlink:href="#DejaVuSans-116"/>
      <use x="580.566406" xlink:href="#DejaVuSans-32"/>
      <use x="612.353516" xlink:href="#DejaVuSans-49"/>
      <use x="675.976562" xlink:href="#DejaVuSans-32"/>
      <use x="707.763672" xlink:href="#DejaVuSans-40"/>
      <use x="746.777344" xlink:href="#DejaVuSans-56"/>
      <use x="810.400391" xlink:href="#DejaVuSans-46"/>
      <use x="842.1875" xlink:href="#DejaVuSans-49"/>
      <use x="905.810547" xlink:href="#DejaVuSans-51"/>
      <use x="969.433594" xlink:href="#DejaVuSans-37"/>
      <use x="1064.453125" xlink:href="#DejaVuSans-32"/>
      <use x="1096.240234" xlink:href="#DejaVuSans-105"/>
      <use x="1124.023438" xlink:href="#DejaVuSans-110"/>
      <use x="1187.402344" xlink:href="#DejaVuSans-101"/>
      <use x="1248.925781" xlink:href="#DejaVuSans-114"/>
      <use x="1290.039062" xlink:href="#DejaVuSans-116"/>
      <use x="1329.248047" xlink:href="#DejaVuSans-105"/>
      <use x="1357.03125" xlink:href="#DejaVuSans-97"/>
      <use x="1418.310547" xlink:href="#DejaVuSans-41"/>
     </g>
    </g>
   </g>
   <g id="line2d_16">
    <path clip-path="url(#pe6e5b38b7a)" d="M 54 215.576961 
L 388.8 215.576961 
" style="fill:none;stroke:#404040;stroke-linecap:square;stroke-opacity:0.6;stroke-width:1.2;"/>
   </g>
   <g id="line2d_17">
    <path clip-path="url(#pe6e5b38b7a)" d="M 208.909724 384.48 
L 208.909724 51.84 
" style="fill:none;stroke:#404040;stroke-linecap:square;stroke-opacity:0.6;stroke-width:1.2;"/>
   </g>
   <g id="patch_5">
    <path d="M 54 384.48 
L 54 51.84 
" style="fill:none;stroke:#000000;stroke-linecap:square;stroke-linejoin:miter;stroke-width:0.8;"/>
   </g>
   <g id="patch_6">
    <path d="M 388.8 384.48 
L 388.8 51.84 
" style="fill:none;stroke:#000000;stroke-linecap:square;stroke-linejoin:miter;stroke-width:0.8;"/>
   </g>
   <g id="patch_7">
    <path d="M 54 384.48 
L 388.8 384.48 
" style="fill:none;stroke:#000000;stroke-linecap:square;stroke-linejoin:miter;stroke-width:0.8;"/>
   </g>
   <g id="patch_8">
    <path d="M 54 51.84 
L 388.8 51.84 
" style="fill:none;stroke:#000000;stroke-linecap:square;stroke-linejoin:miter;stroke-width:0.8;"/>
   </g>
   <g id="text_18">
    <!-- 0 -->
    <g transform="translate(275.191735 298.505364)scale(0.1 -0.1)">
     <use xlink:href="#DejaVuSans-48"/>
    </g>
   </g>
   <g id="text_19">
    <!-- 1 -->
    <g transform="translate(113.090961 96.02547)scale(0.1 -0.1)">
     <use xlink:href="#DejaVuSans-49"/>
    </g>
   </g>
   <g id="text_20">
    <!-- 2 -->
    <g transform="translate(126.335897 197.868102)scale(0.1 -0.1)">
     <use xlink:href="#DejaVuSans-50"/>
    </g>
   </g>
   <g id="text_21">
    <!-- 3 -->
    <g transform="translate(307.092327 218.785926)scale(0.1 -0.1)">
     <use xlink:href="#DejaVuSans-51"/>
    </g>
   </g>
   <g id="text_22">
    <!-- 4 -->
    <g transform="translate(135.897419 252.763056)scale(0.1 -0.1)">
     <use xlink:href="#DejaVuSans-52"/>
    </g>
   </g>
   <g id="text_23">
    <!-- 5 -->
    <g transform="translate(178.372276 220.321994)scale(0.1 -0.1)">
     <defs>
      <path d="M 10.796875 72.90625 
L 49.515625 72.90625 
L 49.515625 64.59375 
L 19.828125 64.59375 
L 19.828125 46.734375 
Q 21.96875 47.46875 24.109375 47.828125 
Q 26.265625 48.1875 28.421875 48.1875 
Q 40.625 48.1875 47.75 41.5 
Q 54.890625 34.8125 54.890625 23.390625 
Q 54.890625 11.625 47.5625 5.09375 
Q 40.234375 -1.421875 26.90625 -1.421875 
Q 22.3125 -1.421875 17.546875 -0.640625 
Q 12.796875 0.140625 7.71875 1.703125 
L 7.71875 11.625 
Q 12.109375 9.234375 16.796875 8.0625 
Q 21.484375 6.890625 26.703125 6.890625 
Q 35.15625 6.890625 40.078125 11.328125 
Q 45.015625 15.765625 45.015625 23.390625 
Q 45.015625 31 40.078125 35.4375 
Q 35.15625 39.890625 26.703125 39.890625 
Q 22.75 39.890625 18.8125 39.015625 
Q 14.890625 38.140625 10.796875 36.28125 
z
" id="DejaVuSans-53"/>
     </defs>
     <use xlink:href="#DejaVuSans-53"/>
    </g>
   </g>
   <g id="text_24">
    <!-- 6 -->
    <g transform="translate(243.061375 233.955134)scale(0.1 -0.1)">
     <defs>
      <path d="M 33.015625 40.375 
Q 26.375 40.375 22.484375 35.828125 
Q 18.609375 31.296875 18.609375 23.390625 
Q 18.609375 15.53125 22.484375 10.953125 
Q 26.375 6.390625 33.015625 6.390625 
Q 39.65625 6.390625 43.53125 10.953125 
Q 47.40625 15.53125 47.40625 23.390625 
Q 47.40625 31.296875 43.53125 35.828125 
Q 39.65625 40.375 33.015625 40.375 
z
M 52.59375 71.296875 
L 52.59375 62.3125 
Q 48.875 64.0625 45.09375 64.984375 
Q 41.3125 65.921875 37.59375 65.921875 
Q 27.828125 65.921875 22.671875 59.328125 
Q 17.53125 52.734375 16.796875 39.40625 
Q 19.671875 43.65625 24.015625 45.921875 
Q 28.375 48.1875 33.59375 48.1875 
Q 44.578125 48.1875 50.953125 41.515625 
Q 57.328125 34.859375 57.328125 23.390625 
Q 57.328125 12.15625 50.6875 5.359375 
Q 44.046875 -1.421875 33.015625 -1.421875 
Q 20.359375 -1.421875 13.671875 8.265625 
Q 6.984375 17.96875 6.984375 36.375 
Q 6.984375 53.65625 15.1875 63.9375 
Q 23.390625 74.21875 37.203125 74.21875 
Q 40.921875 74.21875 44.703125 73.484375 
Q 48.484375 72.75 52.59375 71.296875 
z
" id="DejaVuSans-54"/>
     </defs>
     <use xlink:href="#DejaVuSans-54"/>
    </g>
   </g>
   <g id="text_25">
    <!-- 7 -->
    <g transform="translate(328.025832 151.574014)scale(0.1 -0.1)">
     <defs>
      <path d="M 8.203125 72.90625 
L 55.078125 72.90625 
L 55.078125 68.703125 
L 28.609375 0 
L 18.3125 0 
L 43.21875 64.59375 
L 8.203125 64.59375 
z
" id="DejaVuSans-55"/>
     </defs>
     <use xlink:href="#DejaVuSans-55"/>
    </g>
   </g>
   <g id="text_26">
    <!-- 8 -->
    <g transform="translate(310.171262 170.841317)scale(0.1 -0.1)">
     <use xlink:href="#DejaVuSans-56"/>
    </g>
   </g>
   <g id="text_27">
    <!-- 9 -->
    <g transform="translate(269.033839 205.227872)scale(0.1 -0.1)">
     <defs>
      <path d="M 10.984375 1.515625 
L 10.984375 10.5 
Q 14.703125 8.734375 18.5 7.8125 
Q 22.3125 6.890625 25.984375 6.890625 
Q 35.75 6.890625 40.890625 13.453125 
Q 46.046875 20.015625 46.78125 33.40625 
Q 43.953125 29.203125 39.59375 26.953125 
Q 35.25 24.703125 29.984375 24.703125 
Q 19.046875 24.703125 12.671875 31.3125 
Q 6.296875 37.9375 6.296875 49.421875 
Q 6.296875 60.640625 12.9375 67.421875 
Q 19.578125 74.21875 30.609375 74.21875 
Q 43.265625 74.21875 49.921875 64.515625 
Q 56.59375 54.828125 56.59375 36.375 
Q 56.59375 19.140625 48.40625 8.859375 
Q 40.234375 -1.421875 26.421875 -1.421875 
Q 22.703125 -1.421875 18.890625 -0.6875 
Q 15.09375 0.046875 10.984375 1.515625 
z
M 30.609375 32.421875 
Q 37.25 32.421875 41.125 36.953125 
Q 45.015625 41.5 45.015625 49.421875 
Q 45.015625 57.28125 41.125 61.84375 
Q 37.25 66.40625 30.609375 66.40625 
Q 23.96875 66.40625 20.09375 61.84375 
Q 16.21875 57.28125 16.21875 49.421875 
Q 16.21875 41.5 20.09375 36.953125 
Q 23.96875 32.421875 30.609375 32.421875 
z
" id="DejaVuSans-57"/>
     </defs>
     <use xlink:href="#DejaVuSans-57"/>
    </g>
   </g>
   <g id="text_28">
    <!-- 10 -->
    <g transform="translate(259.640961 257.161875)scale(0.1 -0.1)">
     <use xlink:href="#DejaVuSans-49"/>
     <use x="63.623047" xlink:href="#DejaVuSans-48"/>
    </g>
   </g>
   <g id="text_29">
    <!-- 11 -->
    <g transform="translate(142.772516 138.491659)scale(0.1 -0.1)">
     <use xlink:href="#DejaVuSans-49"/>
     <use x="63.623047" xlink:href="#DejaVuSans-49"/>
    </g>
   </g>
   <g id="text_30">
    <!-- 12 -->
    <g transform="translate(257.815902 165.856852)scale(0.1 -0.1)">
     <use xlink:href="#DejaVuSans-49"/>
     <use x="63.623047" xlink:href="#DejaVuSans-50"/>
    </g>
   </g>
   <g id="text_31">
    <!-- 13 -->
    <g transform="translate(288.751905 226.173599)scale(0.1 -0.1)">
     <use xlink:href="#DejaVuSans-49"/>
     <use x="63.623047" xlink:href="#DejaVuSans-51"/>
    </g>
   </g>
   <g id="text_32">
    <!-- 14 -->
    <g transform="translate(238.825339 137.719)scale(0.1 -0.1)">
     <use xlink:href="#DejaVuSans-49"/>
     <use x="63.623047" xlink:href="#DejaVuSans-52"/>
    </g>
   </g>
   <g id="text_33">
    <!-- 15 -->
    <g transform="translate(100.640876 217.150742)scale(0.1 -0.1)">
     <use xlink:href="#DejaVuSans-49"/>
     <use x="63.623047" xlink:href="#DejaVuSans-53"/>
    </g>
   </g>
   <g id="text_34">
    <!-- 16 -->
    <g transform="translate(268.473754 187.91396)scale(0.1 -0.1)">
     <use xlink:href="#DejaVuSans-49"/>
     <use x="63.623047" xlink:href="#DejaVuSans-54"/>
    </g>
   </g>
   <g id="text_35">
    <!-- 17 -->
    <g transform="translate(110.463808 232.903422)scale(0.1 -0.1)">
     <use xlink:href="#DejaVuSans-49"/>
     <use x="63.623047" xlink:href="#DejaVuSans-55"/>
    </g>
   </g>
   <g id="text_36">
    <!-- 18 -->
    <g transform="translate(283.305244 109.257159)scale(0.1 -0.1)">
     <use xlink:href="#DejaVuSans-49"/>
     <use x="63.623047" xlink:href="#DejaVuSans-56"/>
    </g>
   </g>
   <g id="text_37">
    <!-- 19 -->
    <g transform="translate(97.442376 141.603169)scale(0.1 -0.1)">
     <use xlink:href="#DejaVuSans-49"/>
     <use x="63.623047" xlink:href="#DejaVuSans-57"/>
    </g>
   </g>
   <g id="text_38">
    <!-- 20 -->
    <g transform="translate(237.567766 214.593044)scale(0.1 -0.1)">
     <use xlink:href="#DejaVuSans-50"/>
     <use x="63.623047" xlink:href="#DejaVuSans-48"/>
    </g>
   </g>
   <g id="text_39">
    <!-- 21 -->
    <g transform="translate(269.759783 269.930824)scale(0.1 -0.1)">
     <use xlink:href="#DejaVuSans-50"/>
     <use x="63.623047" xlink:href="#DejaVuSans-49"/>
    </g>
   </g>
   <g id="text_40">
    <!-- 22 -->
    <g transform="translate(118.739838 246.117666)scale(0.1 -0.1)">
     <use xlink:href="#DejaVuSans-50"/>
     <use x="63.623047" xlink:href="#DejaVuSans-50"/>
    </g>
   </g>
   <g id="text_41">
    <!-- 23 -->
    <g transform="translate(98.647563 193.845504)scale(0.1 -0.1)">
     <use xlink:href="#DejaVuSans-50"/>
     <use x="63.623047" xlink:href="#DejaVuSans-51"/>
    </g>
   </g>
   <g id="text_42">
    <!-- 24 -->
    <g transform="translate(252.989836 154.28922)scale(0.1 -0.1)">
     <use xlink:href="#DejaVuSans-50"/>
     <use x="63.623047" xlink:href="#DejaVuSans-52"/>
    </g>
   </g>
   <g id="text_43">
    <!-- 25 -->
    <g transform="translate(158.663058 284.949366)scale(0.1 -0.1)">
     <use xlink:href="#DejaVuSans-50"/>
     <use x="63.623047" xlink:href="#DejaVuSans-53"/>
    </g>
   </g>
   <g id="text_44">
    <!-- 26 -->
    <g transform="translate(165.463084 289.599952)scale(0.1 -0.1)">
     <use xlink:href="#DejaVuSans-50"/>
     <use x="63.623047" xlink:href="#DejaVuSans-54"/>
    </g>
   </g>
   <g id="text_45">
    <!-- 27 -->
    <g transform="translate(257.608437 254.229026)scale(0.1 -0.1)">
     <use xlink:href="#DejaVuSans-50"/>
     <use x="63.623047" xlink:href="#DejaVuSans-55"/>
    </g>
   </g>
   <g id="text_46">
    <!-- 28 -->
    <g transform="translate(189.895635 147.855034)scale(0.1 -0.1)">
     <use xlink:href="#DejaVuSans-50"/>
     <use x="63.623047" xlink:href="#DejaVuSans-56"/>
    </g>
   </g>
   <g id="text_47">
    <!-- 29 -->
    <g transform="translate(133.867906 308.03833)scale(0.1 -0.1)">
     <use xlink:href="#DejaVuSans-50"/>
     <use x="63.623047" xlink:href="#DejaVuSans-57"/>
    </g>
   </g>
   <g id="text_48">
    <!-- 30 -->
    <g transform="translate(132.215267 285.153624)scale(0.1 -0.1)">
     <use xlink:href="#DejaVuSans-51"/>
     <use x="63.623047" xlink:href="#DejaVuSans-48"/>
    </g>
   </g>
   <g id="text_49">
    <!-- 31 -->
    <g transform="translate(187.74398 164.959351)scale(0.1 -0.1)">
     <use xlink:href="#DejaVuSans-51"/>
     <use x="63.623047" xlink:href="#DejaVuSans-49"/>
    </g>
   </g>
   <g id="text_50">
    <!-- 32 -->
    <g transform="translate(170.935943 143.983236)scale(0.1 -0.1)">
     <use xlink:href="#DejaVuSans-51"/>
     <use x="63.623047" xlink:href="#DejaVuSans-50"/>
    </g>
   </g>
   <g id="text_51">
    <!-- 33 -->
    <g transform="translate(246.191539 208.146597)scale(0.1 -0.1)">
     <use xlink:href="#DejaVuSans-51"/>
     <use x="63.623047" xlink:href="#DejaVuSans-51"/>
    </g>
   </g>
   <g id="text_52">
    <!-- 34 -->
    <g transform="translate(162.780872 232.17161)scale(0.1 -0.1)">
     <use xlink:href="#DejaVuSans-51"/>
     <use x="63.623047" xlink:href="#DejaVuSans-52"/>
    </g>
   </g>
   <g id="text_53">
    <!-- 35 -->
    <g transform="translate(159.762987 228.640594)scale(0.1 -0.1)">
     <use xlink:href="#DejaVuSans-51"/>
     <use x="63.623047" xlink:href="#DejaVuSans-53"/>
    </g>
   </g>
   <g id="text_54">
    <!-- 36 -->
    <g transform="translate(288.681419 220.477794)scale(0.1 -0.1)">
     <use xlink:href="#DejaVuSans-51"/>
     <use x="63.623047" xlink:href="#DejaVuSans-54"/>
    </g>
   </g>
   <g id="text_55">
    <!-- 37 -->
    <g transform="translate(138.809571 270.203392)scale(0.1 -0.1)">
     <use xlink:href="#DejaVuSans-51"/>
     <use x="63.623047" xlink:href="#DejaVuSans-55"/>
    </g>
   </g>
   <g id="text_56">
    <!-- 38 -->
    <g transform="translate(215.166224 265.955403)scale(0.1 -0.1)">
     <use xlink:href="#DejaVuSans-51"/>
     <use x="63.623047" xlink:href="#DejaVuSans-56"/>
    </g>
   </g>
   <g id="text_57">
    <!-- 39 -->
    <g transform="translate(281.433894 201.905851)scale(0.1 -0.1)">
     <use xlink:href="#DejaVuSans-51"/>
     <use x="63.623047" xlink:href="#DejaVuSans-57"/>
    </g>
   </g>
   <g id="text_58">
    <!-- 40 -->
    <g transform="translate(270.40551 195.084212)scale(0.1 -0.1)">
     <use xlink:href="#DejaVuSans-52"/>
     <use x="63.623047" xlink:href="#DejaVuSans-48"/>
    </g>
   </g>
   <g id="text_59">
    <!-- 41 -->
    <g transform="translate(314.644087 287.155109)scale(0.1 -0.1)">
     <use xlink:href="#DejaVuSans-52"/>
     <use x="63.623047" xlink:href="#DejaVuSans-49"/>
    </g>
   </g>
   <g id="text_60">
    <!-- 42 -->
    <g transform="translate(109.174087 116.312625)scale(0.1 -0.1)">
     <use xlink:href="#DejaVuSans-52"/>
     <use x="63.623047" xlink:href="#DejaVuSans-50"/>
    </g>
   </g>
   <g id="text_61">
    <!-- 43 -->
    <g transform="translate(188.210078 342.434262)scale(0.1 -0.1)">
     <use xlink:href="#DejaVuSans-52"/>
     <use x="63.623047" xlink:href="#DejaVuSans-51"/>
    </g>
   </g>
   <g id="text_62">
    <!-- 44 -->
    <g transform="translate(174.26678 217.28066)scale(0.1 -0.1)">
     <use xlink:href="#DejaVuSans-52"/>
     <use x="63.623047" xlink:href="#DejaVuSans-52"/>
    </g>
   </g>
   <g id="text_63">
    <!-- 45 -->
    <g transform="translate(226.343469 224.697883)scale(0.1 -0.1)">
     <use xlink:href="#DejaVuSans-52"/>
     <use x="63.623047" xlink:href="#DejaVuSans-53"/>
    </g>
   </g>
   <g id="text_64">
    <!-- 46 -->
    <g transform="translate(314.632168 195.270335)scale(0.1 -0.1)">
     <use xlink:href="#DejaVuSans-52"/>
     <use x="63.623047" xlink:href="#DejaVuSans-54"/>
    </g>
   </g>
   <g id="text_65">
    <!-- 47 -->
    <g transform="translate(254.017441 180.246271)scale(0.1 -0.1)">
     <use xlink:href="#DejaVuSans-52"/>
     <use x="63.623047" xlink:href="#DejaVuSans-55"/>
    </g>
   </g>
   <g id="text_66">
    <!-- 48 -->
    <g transform="translate(103.935124 99.30412)scale(0.1 -0.1)">
     <use xlink:href="#DejaVuSans-52"/>
     <use x="63.623047" xlink:href="#DejaVuSans-56"/>
    </g>
   </g>
   <g id="text_67">
    <!-- 49 -->
    <g transform="translate(286.996095 135.697018)scale(0.1 -0.1)">
     <use xlink:href="#DejaVuSans-52"/>
     <use x="63.623047" xlink:href="#DejaVuSans-57"/>
    </g>
   </g>
   <g id="text_68">
    <!-- 50 -->
    <g transform="translate(149.54202 274.430925)scale(0.1 -0.1)">
     <use xlink:href="#DejaVuSans-53"/>
     <use x="63.623047" xlink:href="#DejaVuSans-48"/>
    </g>
   </g>
   <g id="text_69">
    <!-- 51 -->
    <g transform="translate(148.280578 224.797579)scale(0.1 -0.1)">
     <use xlink:href="#DejaVuSans-53"/>
     <use x="63.623047" xlink:href="#DejaVuSans-49"/>
    </g>
   </g>
   <g id="text_70">
    <!-- 52 -->
    <g transform="translate(335.429397 258.359312)scale(0.1 -0.1)">
     <use xlink:href="#DejaVuSans-53"/>
     <use x="63.623047" xlink:href="#DejaVuSans-50"/>
    </g>
   </g>
   <g id="text_71">
    <!-- 53 -->
    <g transform="translate(219.435604 229.028191)scale(0.1 -0.1)">
     <use xlink:href="#DejaVuSans-53"/>
     <use x="63.623047" xlink:href="#DejaVuSans-51"/>
    </g>
   </g>
   <g id="text_72">
    <!-- 54 -->
    <g transform="translate(216.111168 215.494573)scale(0.1 -0.1)">
     <use xlink:href="#DejaVuSans-53"/>
     <use x="63.623047" xlink:href="#DejaVuSans-52"/>
    </g>
   </g>
   <g id="text_73">
    <!-- 55 -->
    <g transform="translate(331.897362 206.113699)scale(0.1 -0.1)">
     <use xlink:href="#DejaVuSans-53"/>
     <use x="63.623047" xlink:href="#DejaVuSans-53"/>
    </g>
   </g>
   <g id="text_74">
    <!-- 56 -->
    <g transform="translate(205.522698 199.170427)scale(0.1 -0.1)">
     <use xlink:href="#DejaVuSans-53"/>
     <use x="63.623047" xlink:href="#DejaVuSans-54"/>
    </g>
   </g>
   <g id="text_75">
    <!-- 57 -->
    <g transform="translate(192.645075 235.416398)scale(0.1 -0.1)">
     <use xlink:href="#DejaVuSans-53"/>
     <use x="63.623047" xlink:href="#DejaVuSans-55"/>
    </g>
   </g>
   <g id="text_76">
    <!-- 58 -->
    <g transform="translate(307.389295 264.707099)scale(0.1 -0.1)">
     <use xlink:href="#DejaVuSans-53"/>
     <use x="63.623047" xlink:href="#DejaVuSans-56"/>
    </g>
   </g>
   <g id="text_77">
    <!-- 59 -->
    <g transform="translate(281.814043 216.87614)scale(0.1 -0.1)">
     <use xlink:href="#DejaVuSans-53"/>
     <use x="63.623047" xlink:href="#DejaVuSans-57"/>
    </g>
   </g>
   <g id="text_78">
    <!-- 60 -->
    <g transform="translate(188.71175 262.979547)scale(0.1 -0.1)">
     <use xlink:href="#DejaVuSans-54"/>
     <use x="63.623047" xlink:href="#DejaVuSans-48"/>
    </g>
   </g>
   <g id="text_79">
    <!-- 61 -->
    <g transform="translate(131.84347 282.998556)scale(0.1 -0.1)">
     <use xlink:href="#DejaVuSans-54"/>
     <use x="63.623047" xlink:href="#DejaVuSans-49"/>
    </g>
   </g>
   <g id="text_80">
    <!-- 62 -->
    <g transform="translate(373.581818 207.497585)scale(0.1 -0.1)">
     <use xlink:href="#DejaVuSans-54"/>
     <use x="63.623047" xlink:href="#DejaVuSans-50"/>
    </g>
   </g>
   <g id="text_81">
    <!-- 63 -->
    <g transform="translate(151.735065 247.127558)scale(0.1 -0.1)">
     <use xlink:href="#DejaVuSans-54"/>
     <use x="63.623047" xlink:href="#DejaVuSans-51"/>
    </g>
   </g>
   <g id="text_82">
    <!-- 64 -->
    <g transform="translate(241.163398 172.605996)scale(0.1 -0.1)">
     <use xlink:href="#DejaVuSans-54"/>
     <use x="63.623047" xlink:href="#DejaVuSans-52"/>
    </g>
   </g>
   <g id="text_83">
    <!-- 65 -->
    <g transform="translate(323.124394 222.422566)scale(0.1 -0.1)">
     <use xlink:href="#DejaVuSans-54"/>
     <use x="63.623047" xlink:href="#DejaVuSans-53"/>
    </g>
   </g>
   <g id="text_84">
    <!-- 66 -->
    <g transform="translate(175.479596 315.677292)scale(0.1 -0.1)">
     <use xlink:href="#DejaVuSans-54"/>
     <use x="63.623047" xlink:href="#DejaVuSans-54"/>
    </g>
   </g>
   <g id="text_85">
    <!-- 67 -->
    <g transform="translate(108.09354 170.15136)scale(0.1 -0.1)">
     <use xlink:href="#DejaVuSans-54"/>
     <use x="63.623047" xlink:href="#DejaVuSans-55"/>
    </g>
   </g>
   <g id="text_86">
    <!-- 68 -->
    <g transform="translate(95.85114 198.25394)scale(0.1 -0.1)">
     <use xlink:href="#DejaVuSans-54"/>
     <use x="63.623047" xlink:href="#DejaVuSans-56"/>
    </g>
   </g>
   <g id="text_87">
    <!-- 69 -->
    <g transform="translate(113.427013 163.573547)scale(0.1 -0.1)">
     <use xlink:href="#DejaVuSans-54"/>
     <use x="63.623047" xlink:href="#DejaVuSans-57"/>
    </g>
   </g>
   <g id="text_88">
    <!-- 70 -->
    <g transform="translate(128.844455 300.092746)scale(0.1 -0.1)">
     <use xlink:href="#DejaVuSans-55"/>
     <use x="63.623047" xlink:href="#DejaVuSans-48"/>
    </g>
   </g>
   <g id="text_89">
    <!-- 71 -->
    <g transform="translate(303.759158 203.423195)scale(0.1 -0.1)">
     <use xlink:href="#DejaVuSans-55"/>
     <use x="63.623047" xlink:href="#DejaVuSans-49"/>
    </g>
   </g>
   <g id="text_90">
    <!-- 72 -->
    <g transform="translate(104.132882 295.382264)scale(0.1 -0.1)">
     <use xlink:href="#DejaVuSans-55"/>
     <use x="63.623047" xlink:href="#DejaVuSans-50"/>
    </g>
   </g>
   <g id="text_91">
    <!-- 73 -->
    <g transform="translate(239.722244 234.344843)scale(0.1 -0.1)">
     <use xlink:href="#DejaVuSans-55"/>
     <use x="63.623047" xlink:href="#DejaVuSans-51"/>
    </g>
   </g>
   <g id="text_92">
    <!-- 74 -->
    <g transform="translate(242.012246 289.25228)scale(0.1 -0.1)">
     <use xlink:href="#DejaVuSans-55"/>
     <use x="63.623047" xlink:href="#DejaVuSans-52"/>
    </g>
   </g>
   <g id="text_93">
    <!-- 75 -->
    <g transform="translate(275.398088 113.338097)scale(0.1 -0.1)">
     <use xlink:href="#DejaVuSans-55"/>
     <use x="63.623047" xlink:href="#DejaVuSans-53"/>
    </g>
   </g>
   <g id="text_94">
    <!-- 76 -->
    <g transform="translate(179.112803 177.56378)scale(0.1 -0.1)">
     <use xlink:href="#DejaVuSans-55"/>
     <use x="63.623047" xlink:href="#DejaVuSans-54"/>
    </g>
   </g>
   <g id="text_95">
    <!-- 77 -->
    <g transform="translate(163.112843 224.879224)scale(0.1 -0.1)">
     <use xlink:href="#DejaVuSans-55"/>
     <use x="63.623047" xlink:href="#DejaVuSans-55"/>
    </g>
   </g>
   <g id="text_96">
    <!-- 78 -->
    <g transform="translate(311.681494 222.265433)scale(0.1 -0.1)">
     <use xlink:href="#DejaVuSans-55"/>
     <use x="63.623047" xlink:href="#DejaVuSans-56"/>
    </g>
   </g>
   <g id="text_97">
    <!-- 79 -->
    <g transform="translate(293.649766 182.175632)scale(0.1 -0.1)">
     <use xlink:href="#DejaVuSans-55"/>
     <use x="63.623047" xlink:href="#DejaVuSans-57"/>
    </g>
   </g>
   <g id="text_98">
    <!-- 80 -->
    <g transform="translate(239.329646 229.369565)scale(0.1 -0.1)">
     <use xlink:href="#DejaVuSans-56"/>
     <use x="63.623047" xlink:href="#DejaVuSans-48"/>
    </g>
   </g>
   <g id="text_99">
    <!-- 81 -->
    <g transform="translate(269.744556 240.606038)scale(0.1 -0.1)">
     <use xlink:href="#DejaVuSans-56"/>
     <use x="63.623047" xlink:href="#DejaVuSans-49"/>
    </g>
   </g>
   <g id="text_100">
    <!-- 82 -->
    <g transform="translate(174.670857 268.897304)scale(0.1 -0.1)">
     <use xlink:href="#DejaVuSans-56"/>
     <use x="63.623047" xlink:href="#DejaVuSans-50"/>
    </g>
   </g>
   <g id="text_101">
    <!-- 83 -->
    <g transform="translate(235.856881 150.318796)scale(0.1 -0.1)">
     <use xlink:href="#DejaVuSans-56"/>
     <use x="63.623047" xlink:href="#DejaVuSans-51"/>
    </g>
   </g>
   <g id="text_102">
    <!-- 84 -->
    <g transform="translate(174.948178 227.266862)scale(0.1 -0.1)">
     <use xlink:href="#DejaVuSans-56"/>
     <use x="63.623047" xlink:href="#DejaVuSans-52"/>
    </g>
   </g>
   <g id="text_103">
    <!-- 85 -->
    <g transform="translate(152.718795 161.718471)scale(0.1 -0.1)">
     <use xlink:href="#DejaVuSans-56"/>
     <use x="63.623047" xlink:href="#DejaVuSans-53"/>
    </g>
   </g>
   <g id="text_104">
    <!-- 86 -->
    <g transform="translate(129.145564 280.668005)scale(0.1 -0.1)">
     <use xlink:href="#DejaVuSans-56"/>
     <use x="63.623047" xlink:href="#DejaVuSans-54"/>
    </g>
   </g>
   <g id="text_105">
    <!-- 87 -->
    <g transform="translate(171.335617 318.773801)scale(0.1 -0.1)">
     <use xlink:href="#DejaVuSans-56"/>
     <use x="63.623047" xlink:href="#DejaVuSans-55"/>
    </g>
   </g>
   <g id="text_106">
    <!-- 88 -->
    <g transform="translate(279.289946 244.503731)scale(0.1 -0.1)">
     <use xlink:href="#DejaVuSans-56"/>
     <use x="63.623047" xlink:href="#DejaVuSans-56"/>
    </g>
   </g>
   <g id="text_107">
    <!-- 89 -->
    <g transform="translate(256.352498 253.059923)scale(0.1 -0.1)">
     <use xlink:href="#DejaVuSans-56"/>
     <use x="63.623047" xlink:href="#DejaVuSans-57"/>
    </g>
   </g>
   <g id="text_108">
    <!-- 90 -->
    <g transform="translate(91.058499 66.96)scale(0.1 -0.1)">
     <use xlink:href="#DejaVuSans-57"/>
     <use x="63.623047" xlink:href="#DejaVuSans-48"/>
    </g>
   </g>
   <g id="text_109">
    <!-- 91 -->
    <g transform="translate(177.486974 292.921978)scale(0.1 -0.1)">
     <use xlink:href="#DejaVuSans-57"/>
     <use x="63.623047" xlink:href="#DejaVuSans-49"/>
    </g>
   </g>
   <g id="text_110">
    <!-- 92 -->
    <g transform="translate(210.798603 163.295593)scale(0.1 -0.1)">
     <use xlink:href="#DejaVuSans-57"/>
     <use x="63.623047" xlink:href="#DejaVuSans-50"/>
    </g>
   </g>
   <g id="text_111">
    <!-- 93 -->
    <g transform="translate(244.504951 195.809807)scale(0.1 -0.1)">
     <use xlink:href="#DejaVuSans-57"/>
     <use x="63.623047" xlink:href="#DejaVuSans-51"/>
    </g>
   </g>
   <g id="text_112">
    <!-- 94 -->
    <g transform="translate(250.300348 156.534201)scale(0.1 -0.1)">
     <use xlink:href="#DejaVuSans-57"/>
     <use x="63.623047" xlink:href="#DejaVuSans-52"/>
    </g>
   </g>
   <g id="text_113">
    <!-- 95 -->
    <g transform="translate(98.4117 233.380307)scale(0.1 -0.1)">
     <use xlink:href="#DejaVuSans-57"/>
     <use x="63.623047" xlink:href="#DejaVuSans-53"/>
    </g>
   </g>
   <g id="text_114">
    <!-- 96 -->
    <g transform="translate(156.967836 112.854219)scale(0.1 -0.1)">
     <use xlink:href="#DejaVuSans-57"/>
     <use x="63.623047" xlink:href="#DejaVuSans-54"/>
    </g>
   </g>
   <g id="text_115">
    <!-- 97 -->
    <g transform="translate(151.811232 87.600157)scale(0.1 -0.1)">
     <use xlink:href="#DejaVuSans-57"/>
     <use x="63.623047" xlink:href="#DejaVuSans-55"/>
    </g>
   </g>
   <g id="text_116">
    <!-- 98 -->
    <g transform="translate(143.491232 303.645874)scale(0.1 -0.1)">
     <use xlink:href="#DejaVuSans-57"/>
     <use x="63.623047" xlink:href="#DejaVuSans-56"/>
    </g>
   </g>
   <g id="text_117">
    <!-- 99 -->
    <g transform="translate(191.396852 246.938944)scale(0.1 -0.1)">
     <use xlink:href="#DejaVuSans-57"/>
     <use x="63.623047" xlink:href="#DejaVuSans-57"/>
    </g>
   </g>
   <g id="text_118">
    <!-- 100 -->
    <g transform="translate(276.438028 248.701063)scale(0.1 -0.1)">
     <use xlink:href="#DejaVuSans-49"/>
     <use x="63.623047" xlink:href="#DejaVuSans-48"/>
     <use x="127.246094" xlink:href="#DejaVuSans-48"/>
    </g>
   </g>
   <g id="text_119">
    <!-- 101 -->
    <g transform="translate(256.273601 255.998012)scale(0.1 -0.1)">
     <use xlink:href="#DejaVuSans-49"/>
     <use x="63.623047" xlink:href="#DejaVuSans-48"/>
     <use x="127.246094" xlink:href="#DejaVuSans-49"/>
    </g>
   </g>
   <g id="text_120">
    <!-- Row principal coordinates -->
    <g transform="translate(144.117188 45.84)scale(0.12 -0.12)">
     <defs>
      <path d="M 44.390625 34.1875 
Q 47.5625 33.109375 50.5625 29.59375 
Q 53.5625 26.078125 56.59375 19.921875 
L 66.609375 0 
L 56 0 
L 46.6875 18.703125 
Q 43.0625 26.03125 39.671875 28.421875 
Q 36.28125 30.8125 30.421875 30.8125 
L 19.671875 30.8125 
L 19.671875 0 
L 9.8125 0 
L 9.8125 72.90625 
L 32.078125 72.90625 
Q 44.578125 72.90625 50.734375 67.671875 
Q 56.890625 62.453125 56.890625 51.90625 
Q 56.890625 45.015625 53.6875 40.46875 
Q 50.484375 35.9375 44.390625 34.1875 
z
M 19.671875 64.796875 
L 19.671875 38.921875 
L 32.078125 38.921875 
Q 39.203125 38.921875 42.84375 42.21875 
Q 46.484375 45.515625 46.484375 51.90625 
Q 46.484375 58.296875 42.84375 61.546875 
Q 39.203125 64.796875 32.078125 64.796875 
z
" id="DejaVuSans-82"/>
      <path d="M 4.203125 54.6875 
L 13.1875 54.6875 
L 24.421875 12.015625 
L 35.59375 54.6875 
L 46.1875 54.6875 
L 57.421875 12.015625 
L 68.609375 54.6875 
L 77.59375 54.6875 
L 63.28125 0 
L 52.6875 0 
L 40.921875 44.828125 
L 29.109375 0 
L 18.5 0 
z
" id="DejaVuSans-119"/>
      <path d="M 48.78125 52.59375 
L 48.78125 44.1875 
Q 44.96875 46.296875 41.140625 47.34375 
Q 37.3125 48.390625 33.40625 48.390625 
Q 24.65625 48.390625 19.8125 42.84375 
Q 14.984375 37.3125 14.984375 27.296875 
Q 14.984375 17.28125 19.8125 11.734375 
Q 24.65625 6.203125 33.40625 6.203125 
Q 37.3125 6.203125 41.140625 7.25 
Q 44.96875 8.296875 48.78125 10.40625 
L 48.78125 2.09375 
Q 45.015625 0.34375 40.984375 -0.53125 
Q 36.96875 -1.421875 32.421875 -1.421875 
Q 20.0625 -1.421875 12.78125 6.34375 
Q 5.515625 14.109375 5.515625 27.296875 
Q 5.515625 40.671875 12.859375 48.328125 
Q 20.21875 56 33.015625 56 
Q 37.15625 56 41.109375 55.140625 
Q 45.0625 54.296875 48.78125 52.59375 
z
" id="DejaVuSans-99"/>
      <path d="M 9.421875 75.984375 
L 18.40625 75.984375 
L 18.40625 0 
L 9.421875 0 
z
" id="DejaVuSans-108"/>
      <path d="M 45.40625 46.390625 
L 45.40625 75.984375 
L 54.390625 75.984375 
L 54.390625 0 
L 45.40625 0 
L 45.40625 8.203125 
Q 42.578125 3.328125 38.25 0.953125 
Q 33.9375 -1.421875 27.875 -1.421875 
Q 17.96875 -1.421875 11.734375 6.484375 
Q 5.515625 14.40625 5.515625 27.296875 
Q 5.515625 40.1875 11.734375 48.09375 
Q 17.96875 56 27.875 56 
Q 33.9375 56 38.25 53.625 
Q 42.578125 51.265625 45.40625 46.390625 
z
M 14.796875 27.296875 
Q 14.796875 17.390625 18.875 11.75 
Q 22.953125 6.109375 30.078125 6.109375 
Q 37.203125 6.109375 41.296875 11.75 
Q 45.40625 17.390625 45.40625 27.296875 
Q 45.40625 37.203125 41.296875 42.84375 
Q 37.203125 48.484375 30.078125 48.484375 
Q 22.953125 48.484375 18.875 42.84375 
Q 14.796875 37.203125 14.796875 27.296875 
z
" id="DejaVuSans-100"/>
      <path d="M 44.28125 53.078125 
L 44.28125 44.578125 
Q 40.484375 46.53125 36.375 47.5 
Q 32.28125 48.484375 27.875 48.484375 
Q 21.1875 48.484375 17.84375 46.4375 
Q 14.5 44.390625 14.5 40.28125 
Q 14.5 37.15625 16.890625 35.375 
Q 19.28125 33.59375 26.515625 31.984375 
L 29.59375 31.296875 
Q 39.15625 29.25 43.1875 25.515625 
Q 47.21875 21.78125 47.21875 15.09375 
Q 47.21875 7.46875 41.1875 3.015625 
Q 35.15625 -1.421875 24.609375 -1.421875 
Q 20.21875 -1.421875 15.453125 -0.5625 
Q 10.6875 0.296875 5.421875 2 
L 5.421875 11.28125 
Q 10.40625 8.6875 15.234375 7.390625 
Q 20.0625 6.109375 24.8125 6.109375 
Q 31.15625 6.109375 34.5625 8.28125 
Q 37.984375 10.453125 37.984375 14.40625 
Q 37.984375 18.0625 35.515625 20.015625 
Q 33.0625 21.96875 24.703125 23.78125 
L 21.578125 24.515625 
Q 13.234375 26.265625 9.515625 29.90625 
Q 5.8125 33.546875 5.8125 39.890625 
Q 5.8125 47.609375 11.28125 51.796875 
Q 16.75 56 26.8125 56 
Q 31.78125 56 36.171875 55.265625 
Q 40.578125 54.546875 44.28125 53.078125 
z
" id="DejaVuSans-115"/>
     </defs>
     <use xlink:href="#DejaVuSans-82"/>
     <use x="64.982422" xlink:href="#DejaVuSans-111"/>
     <use x="126.164062" xlink:href="#DejaVuSans-119"/>
     <use x="207.951172" xlink:href="#DejaVuSans-32"/>
     <use x="239.738281" xlink:href="#DejaVuSans-112"/>
     <use x="303.214844" xlink:href="#DejaVuSans-114"/>
     <use x="344.328125" xlink:href="#DejaVuSans-105"/>
     <use x="372.111328" xlink:href="#DejaVuSans-110"/>
     <use x="435.490234" xlink:href="#DejaVuSans-99"/>
     <use x="490.470703" xlink:href="#DejaVuSans-105"/>
     <use x="518.253906" xlink:href="#DejaVuSans-112"/>
     <use x="581.730469" xlink:href="#DejaVuSans-97"/>
     <use x="643.009766" xlink:href="#DejaVuSans-108"/>
     <use x="670.792969" xlink:href="#DejaVuSans-32"/>
     <use x="702.580078" xlink:href="#DejaVuSans-99"/>
     <use x="757.560547" xlink:href="#DejaVuSans-111"/>
     <use x="818.742188" xlink:href="#DejaVuSans-111"/>
     <use x="879.923828" xlink:href="#DejaVuSans-114"/>
     <use x="919.287109" xlink:href="#DejaVuSans-100"/>
     <use x="982.763672" xlink:href="#DejaVuSans-105"/>
     <use x="1010.546875" xlink:href="#DejaVuSans-110"/>
     <use x="1073.925781" xlink:href="#DejaVuSans-97"/>
     <use x="1135.205078" xlink:href="#DejaVuSans-116"/>
     <use x="1174.414062" xlink:href="#DejaVuSans-101"/>
     <use x="1235.9375" xlink:href="#DejaVuSans-115"/>
    </g>
   </g>
   <g id="legend_1">
    <g id="patch_9">
     <path d="M 315.326563 89.19625 
L 381.8 89.19625 
Q 383.8 89.19625 383.8 87.19625 
L 383.8 58.84 
Q 383.8 56.84 381.8 56.84 
L 315.326563 56.84 
Q 313.326563 56.84 313.326563 58.84 
L 313.326563 87.19625 
Q 313.326563 89.19625 315.326563 89.19625 
z
" style="fill:#ffffff;opacity:0.8;stroke:#cccccc;stroke-linejoin:miter;"/>
    </g>
    <g id="PathCollection_3">
     <g>
      <use style="fill:#1f77b4;stroke:#1f77b4;" x="327.326563" xlink:href="#m85f3716e3a" y="65.813437"/>
     </g>
    </g>
    <g id="text_121">
     <!-- female -->
     <g transform="translate(345.326563 68.438437)scale(0.1 -0.1)">
      <defs>
       <path d="M 37.109375 75.984375 
L 37.109375 68.5 
L 28.515625 68.5 
Q 23.6875 68.5 21.796875 66.546875 
Q 19.921875 64.59375 19.921875 59.515625 
L 19.921875 54.6875 
L 34.71875 54.6875 
L 34.71875 47.703125 
L 19.921875 47.703125 
L 19.921875 0 
L 10.890625 0 
L 10.890625 47.703125 
L 2.296875 47.703125 
L 2.296875 54.6875 
L 10.890625 54.6875 
L 10.890625 58.5 
Q 10.890625 67.625 15.140625 71.796875 
Q 19.390625 75.984375 28.609375 75.984375 
z
" id="DejaVuSans-102"/>
      </defs>
      <use xlink:href="#DejaVuSans-102"/>
      <use x="35.205078" xlink:href="#DejaVuSans-101"/>
      <use x="96.728516" xlink:href="#DejaVuSans-109"/>
      <use x="194.140625" xlink:href="#DejaVuSans-97"/>
      <use x="255.419922" xlink:href="#DejaVuSans-108"/>
      <use x="283.203125" xlink:href="#DejaVuSans-101"/>
     </g>
    </g>
    <g id="PathCollection_4">
     <g>
      <use style="fill:#ff7f0e;stroke:#ff7f0e;" x="327.326563" xlink:href="#m316afdeae6" y="80.491562"/>
     </g>
    </g>
    <g id="text_122">
     <!-- male -->
     <g transform="translate(345.326563 83.116562)scale(0.1 -0.1)">
      <use xlink:href="#DejaVuSans-109"/>
      <use x="97.412109" xlink:href="#DejaVuSans-97"/>
      <use x="158.691406" xlink:href="#DejaVuSans-108"/>
      <use x="186.474609" xlink:href="#DejaVuSans-101"/>
     </g>
    </g>
   </g>
  </g>
 </g>
 <defs>
  <clipPath id="pe6e5b38b7a">
   <rect height="332.64" width="334.8" x="54" y="51.84"/>
  </clipPath>
 </defs>
</svg>
